<svg width="40" height="40" viewBox="0 0 40 40" fill="none" xmlns="http://www.w3.org/2000/svg">
<rect width="40" height="40" rx="20" fill="#101011"/>
<path d="M25.4935 16.3381C25.671 15.7948 25.7319 15.2201 25.6722 14.6516C25.6125 14.0831 25.4335 13.5337 25.1469 13.0391C25.1098 12.9749 25.0565 12.9216 24.9923 12.8846C24.9282 12.8476 24.8554 12.8281 24.7812 12.8281C24.136 12.8267 23.4996 12.979 22.925 13.2725C22.3503 13.5659 21.8538 13.9921 21.4766 14.5156H19.6484C19.2712 13.9921 18.7747 13.5659 18.2 13.2725C17.6254 12.979 16.989 12.8267 16.3438 12.8281C16.2696 12.8281 16.1968 12.8476 16.1327 12.8846C16.0685 12.9216 16.0152 12.9749 15.9781 13.0391C15.6915 13.5337 15.5125 14.0831 15.4528 14.6516C15.3931 15.2201 15.454 15.7948 15.6315 16.3381C15.2755 16.9357 15.0846 17.617 15.0781 18.3125V18.875C15.0794 19.8383 15.4463 20.7653 16.1048 21.4684C16.7633 22.1715 17.6642 22.5984 18.6254 22.6627C18.1534 23.158 17.8903 23.8159 17.8906 24.5V25.2031H16.0625C15.5777 25.2031 15.1127 25.0105 14.7698 24.6677C14.427 24.3249 14.2344 23.8599 14.2344 23.375C14.2344 22.6664 13.9529 21.9868 13.4518 21.4857C12.9507 20.9846 12.2711 20.7031 11.5625 20.7031C11.4506 20.7031 11.3433 20.7476 11.2642 20.8267C11.1851 20.9058 11.1406 21.0131 11.1406 21.125C11.1406 21.2369 11.1851 21.3442 11.2642 21.4233C11.3433 21.5024 11.4506 21.5469 11.5625 21.5469C12.0473 21.5469 12.5123 21.7395 12.8552 22.0823C13.198 22.4252 13.3906 22.8902 13.3906 23.375C13.3906 24.0836 13.6721 24.7632 14.1732 25.2643C14.6743 25.7654 15.3539 26.0469 16.0625 26.0469H17.8906V27.3125C17.8906 27.4244 17.9351 27.5317 18.0142 27.6108C18.0933 27.6899 18.2006 27.7344 18.3125 27.7344C18.4244 27.7344 18.5317 27.6899 18.6108 27.6108C18.6899 27.5317 18.7344 27.4244 18.7344 27.3125V24.5C18.7344 24.0152 18.927 23.5502 19.2698 23.2073C19.6127 22.8645 20.0777 22.6719 20.5625 22.6719C21.0473 22.6719 21.5123 22.8645 21.8552 23.2073C22.198 23.5502 22.3906 24.0152 22.3906 24.5V27.3125C22.3906 27.4244 22.4351 27.5317 22.5142 27.6108C22.5933 27.6899 22.7006 27.7344 22.8125 27.7344C22.9244 27.7344 23.0317 27.6899 23.1108 27.6108C23.1899 27.5317 23.2344 27.4244 23.2344 27.3125V24.5C23.2347 23.8159 22.9716 23.158 22.4996 22.6627C23.4608 22.5984 24.3617 22.1715 25.0202 21.4684C25.6787 20.7653 26.0456 19.8383 26.0469 18.875V18.3125C26.0404 17.617 25.8495 16.9357 25.4935 16.3381ZM25.2031 18.875C25.2031 19.6582 24.892 20.4094 24.3382 20.9632C23.7844 21.517 23.0332 21.8281 22.25 21.8281H18.875C18.0918 21.8281 17.3406 21.517 16.7868 20.9632C16.233 20.4094 15.9219 19.6582 15.9219 18.875V18.3125C15.9292 17.7195 16.1075 17.1411 16.4352 16.6468C16.4782 16.5897 16.506 16.5225 16.516 16.4517C16.526 16.3808 16.5177 16.3086 16.4921 16.2418C16.3329 15.8308 16.2597 15.3914 16.277 14.951C16.2943 14.5105 16.4017 14.0783 16.5927 13.681C17.0925 13.7187 17.5766 13.8725 18.0066 14.13C18.4366 14.3875 18.8006 14.7418 19.0698 15.1646C19.1079 15.2244 19.1605 15.2735 19.2227 15.3076C19.2849 15.3416 19.3547 15.3594 19.4255 15.3594H21.6995C21.7703 15.3595 21.84 15.3418 21.9022 15.3079C21.9643 15.274 22.017 15.2249 22.0552 15.1653C22.3242 14.7423 22.6882 14.3878 23.1182 14.1302C23.5482 13.8725 24.0324 13.7187 24.5323 13.681C24.7233 14.0783 24.8307 14.5105 24.848 14.951C24.8653 15.3914 24.7921 15.8308 24.6329 16.2418C24.6073 16.3083 24.599 16.3802 24.6087 16.4508C24.6184 16.5213 24.6459 16.5883 24.6884 16.6454C25.0172 17.1398 25.1959 17.7188 25.2031 18.3125V18.875Z" fill="#E2E2E2"/>
</svg>
