<svg width="43" height="21" viewBox="0 0 43 21" fill="none" xmlns="http://www.w3.org/2000/svg">
<path d="M20.5046 10.2523C20.5046 7.53323 19.4245 4.92552 17.5018 3.00283C15.5791 1.08015 12.9714 2.05285e-07 10.2523 0C7.53323 -2.05285e-07 4.92552 1.08015 3.00283 3.00283C1.08015 4.92551 4.1057e-07 7.53323 0 10.2523L10.2523 10.2523H20.5046Z" fill="#1A4B4A"/>
<path d="M20.5046 10.2523C20.5046 12.9714 19.4245 15.5791 17.5018 17.5018C15.5791 19.4245 12.9714 20.5046 10.2523 20.5046C7.53323 20.5046 4.92552 19.4245 3.00283 17.5018C1.08015 15.5791 4.1057e-07 12.9714 0 10.2523L10.2523 10.2523H20.5046Z" fill="#6FD784"/>
<circle cx="32.7477" cy="10.2524" r="10.2523" fill="#1A4B4A"/>
</svg>
