<svg width="40" height="40" viewBox="0 0 40 40" fill="none" xmlns="http://www.w3.org/2000/svg">
<rect width="40" height="40" rx="20" fill="#101011"/>
<path d="M27.001 12.9478C26.9332 12.8892 26.8506 12.8503 26.7623 12.8352C26.6739 12.8201 26.5831 12.8294 26.4997 12.8621L12.2502 18.4385C12.0768 18.5064 11.9302 18.6286 11.8323 18.7868C11.7343 18.9451 11.6904 19.1309 11.707 19.3162C11.7237 19.5016 11.8 19.6766 11.9246 19.8149C12.0491 19.9532 12.2152 20.0473 12.3978 20.0832L16.2031 20.8306V25.0627C16.2032 25.2589 16.2619 25.4506 16.3717 25.6132C16.4815 25.7758 16.6374 25.9019 16.8194 25.9752C17.0013 26.0486 17.2011 26.0659 17.393 26.025C17.5848 25.984 17.7601 25.8867 17.8963 25.7454L19.7694 23.8027L22.693 26.3656C22.8715 26.5235 23.1015 26.6108 23.3398 26.611C23.4439 26.6107 23.5473 26.5944 23.6464 26.5625C23.8088 26.5111 23.9549 26.418 24.0702 26.2925C24.1854 26.167 24.2657 26.0136 24.3031 25.8474L27.1592 13.4309C27.1793 13.3436 27.1752 13.2525 27.1473 13.1674C27.1194 13.0822 27.0688 13.0063 27.001 12.9478ZM12.5504 19.2528C12.5477 19.2455 12.5477 19.2375 12.5504 19.2303C12.5536 19.2278 12.5571 19.2259 12.5609 19.2246L23.7906 14.8287L16.5273 20.0318L12.5609 19.2556L12.5504 19.2528ZM17.2888 25.159C17.2694 25.1791 17.2444 25.193 17.2171 25.1989C17.1898 25.2048 17.1614 25.2024 17.1355 25.1921C17.1095 25.1817 17.0872 25.1639 17.0715 25.1409C17.0557 25.1178 17.0471 25.0906 17.0469 25.0627V21.4142L19.1345 23.2423L17.2888 25.159ZM23.4812 25.6568C23.476 25.6806 23.4645 25.7025 23.4479 25.7204C23.4314 25.7382 23.4103 25.7512 23.387 25.7581C23.3632 25.7664 23.3375 25.7682 23.3128 25.7633C23.288 25.7583 23.2651 25.7468 23.2463 25.73L17.3028 20.5163L26.1172 14.1994L23.4812 25.6568Z" fill="#E2E2E2"/>
</svg>
