<svg width="40" height="40" viewBox="0 0 40 40" fill="none" xmlns="http://www.w3.org/2000/svg">
<rect width="40" height="40" rx="20" fill="#101011"/>
<path d="M25.9808 25.9612L21.5216 18.9539L25.9372 14.0939C25.9801 14.054 26.0143 14.0057 26.0375 13.9519C26.0607 13.8981 26.0725 13.8401 26.0721 13.7815C26.0716 13.723 26.059 13.6651 26.035 13.6117C26.011 13.5583 25.9761 13.5104 25.9326 13.4712C25.889 13.432 25.8378 13.4023 25.7822 13.384C25.7266 13.3657 25.6677 13.3591 25.6094 13.3648C25.5511 13.3704 25.4947 13.3882 25.4436 13.4168C25.3925 13.4455 25.348 13.4845 25.3128 13.5314L21.0547 18.2156L18.1086 13.5862C18.0703 13.5259 18.0173 13.4764 17.9545 13.4422C17.8918 13.408 17.8214 13.3903 17.75 13.3907H14.375C14.2994 13.3908 14.2253 13.4111 14.1602 13.4496C14.0952 13.4881 14.0417 13.5434 14.0054 13.6097C13.969 13.6759 13.9511 13.7507 13.9535 13.8262C13.956 13.9018 13.9787 13.9753 14.0192 14.039L18.4784 21.0464L14.0628 25.9064C13.9996 25.9906 13.9701 26.0955 13.9803 26.2004C13.9905 26.3053 14.0395 26.4026 14.1178 26.4731C14.1961 26.5436 14.298 26.5823 14.4033 26.5815C14.5087 26.5807 14.61 26.5406 14.6872 26.4689L18.9453 21.7847L21.8914 26.414C21.9297 26.4743 21.9828 26.5239 22.0455 26.5581C22.1082 26.5922 22.1786 26.6099 22.25 26.6095H25.625C25.7006 26.6095 25.7748 26.5891 25.8398 26.5506C25.9048 26.5121 25.9583 26.4568 25.9946 26.3906C26.031 26.3243 26.0489 26.2495 26.0465 26.174C26.044 26.0985 26.0213 26.025 25.9808 25.9612ZM22.4813 25.7658L15.1435 14.2345H17.5187L24.8565 25.7658H22.4813Z" fill="#E2E2E2"/>
</svg>
